<svg xmlns="http://www.w3.org/2000/svg" viewBox="0 0 512 512"><defs><path id="c" d="M-27 351v-93q0-4 4-4h46q4 0 4 4v93c0 4 3 7 7 7h4q5 0 5 4v90q0 5-5 5h-76q-5 0-5-5v-90q0-4 5-4h4c4 0 7-3 7-7"/><path id="d" d="M78 414V264q0-10 9-10h45q4 0 4 5v93c0 3 3 6 7 6h5q4 0 4 4v90q0 5-5 5h-29c-21 0-40-19-40-43"/><path id="b" d="M-34 0a34 34 0 1 1 68 0 34 34 0 1 1-68 0"/><linearGradient id="a" x1="0" y1="0" x2="0" y2="1"><stop stop-color="#2a2a2a"/><stop offset="1" stop-color="#111"/></linearGradient></defs><rect width="512" height="512" rx="76" fill="url(#a)"/><g fill="#fff"><use href="#b" transform="translate(199 201)"/><use href="#b" transform="translate(298 176)"/><path d="M211 171V92c0-5 4-10 9-12l100-28c6-2 12 3 12 8v117h-22v-77c0-2-2-4-7-3l-66 19q-3 1-4 6v79h-22z"/><use href="#c" transform="translate(207)"/><use href="#c" transform="translate(305)"/><use href="#d"/><use href="#d" transform="matrix(-1 0 0 1 512 0)"/></g></svg>